<svg xmlns="http://www.w3.org/2000/svg" viewBox="0 0 410 375.35"><defs><style>.cls-1{fill:#454ade;}</style></defs><title>nav_Asset 12</title><g id="Layer_2" data-name="Layer 2"><g id="Layer_1-2" data-name="Layer 1"><path class="cls-1" d="M410,288.77v-54.3a64.8,64.8,0,0,0-64.8-64.8H145.1a64.8,64.8,0,0,0-64.8,64.8v54.3a64.8,64.8,0,0,0,64.8,64.8H345.2A65.17,65.17,0,0,0,358,352.3a75.92,75.92,0,0,0,44.17,23c-14.27-8.93-17.47-23.67-17.42-35.26A64.67,64.67,0,0,0,410,288.77Zm-33.35,6.08c-1.45,10.92-12.21,31.59-42.52,31.59H269.05a7.5,7.5,0,0,1,0-15h65.08c24.08,0,27.37-16.74,27.66-18.65a7.5,7.5,0,0,1,14.86,2.06Z"/><path class="cls-1" d="M264.9,0H64.8A64.8,64.8,0,0,0,0,64.8v4.3a64.67,64.67,0,0,0,25.24,51.32c0,11.59-3.15,26.33-17.42,35.26A75.92,75.92,0,0,0,52,132.63,65.16,65.16,0,0,0,64.8,133.9H264.9a64.8,64.8,0,0,0,64.8-64.8V64.8A64.8,64.8,0,0,0,264.9,0ZM134,41.11H68.95c-24.9,0-27.55,17.81-27.65,18.57a7.51,7.51,0,0,1-7.43,6.51,8.51,8.51,0,0,1-1-.06,7.5,7.5,0,0,1-6.44-8.43c1.45-10.92,12.21-31.59,42.52-31.59H134a7.5,7.5,0,0,1,0,15Z"/></g></g></svg>