<svg xmlns="http://www.w3.org/2000/svg" viewBox="0 0 306.91 437.33"><defs><style>.cls-1{fill:none;stroke:#2b5b89;stroke-linecap:round;stroke-linejoin:round;stroke-width:15px;}</style></defs><title>nav_Asset 18</title><g id="Layer_2" data-name="Layer 2"><g id="Layer_1-2" data-name="Layer 1"><path class="cls-1" d="M136.32,7.5s6.15,51.09-59.08,121.57C65.49,141.77,7.5,198.75,7.5,266.19c0,85.75,68.1,156.5,128.82,163.65,0,0-59.78-50.66-59.78-112.83,0,0-7-52.94,66.6-117.25a115.14,115.14,0,0,0-10.62,56,118.49,118.49,0,0,0,19.82,57.5s42.76-10.55,37-57c0,0,42.77,21.44,42.77,70.75,0,42.5-32,98.35-42.47,101,48.66-12.55,88.64-43.12,104.5-97.5,16.59-56.93-9.22-117.24-34.09-178.71A506.46,506.46,0,0,0,214.9,65.5a66.59,66.59,0,0,1-14.16,47C186.29,131,166.4,138.1,159.5,140.25a122.81,122.81,0,0,0,9.47-59C165.59,44,145.61,18.11,136.32,7.5Z"/><path class="cls-1" d="M108,147.33C96.22,160,38.23,217,38.23,284.44"/><path class="cls-1" d="M210.48,236.35c6.1.06,23.31,13.84,32.51,34"/></g></g></svg>