<svg xmlns="http://www.w3.org/2000/svg" viewBox="0 0 400 400"><defs><style>.cls-1{fill:#2b5b89;}.cls-2{fill:none;stroke:#2b5b89;stroke-linecap:round;stroke-miterlimit:10;stroke-width:15px;}</style></defs><title>nav_Asset 19</title><g id="Layer_2" data-name="Layer 2"><g id="Layer_1-2" data-name="Layer 1"><path class="cls-1" d="M150,15a35,35,0,0,1,35,35V150a35,35,0,0,1-35,35H50a35,35,0,0,1-35-35V50A35,35,0,0,1,50,15H150m0-15H50A50,50,0,0,0,0,50V150a50,50,0,0,0,50,50H150a50,50,0,0,0,50-50V50A50,50,0,0,0,150,0Z"/><path class="cls-1" d="M350,35a35,35,0,0,1,35,35v80a35,35,0,0,1-35,35H270a35,35,0,0,1-35-35V70a35,35,0,0,1,35-35h80m0-15H270a50,50,0,0,0-50,50v80a50,50,0,0,0,50,50h80a50,50,0,0,0,50-50V70a50,50,0,0,0-50-50Z"/><path class="cls-1" d="M350,235a35,35,0,0,1,35,35v80a35,35,0,0,1-35,35H270a35,35,0,0,1-35-35V270a35,35,0,0,1,35-35h80m0-15H270a50,50,0,0,0-50,50v80a50,50,0,0,0,50,50h80a50,50,0,0,0,50-50V270a50,50,0,0,0-50-50Z"/><path class="cls-1" d="M150,235a35,35,0,0,1,35,35v80a35,35,0,0,1-35,35H70a35,35,0,0,1-35-35V270a35,35,0,0,1,35-35h80m0-15H70a50,50,0,0,0-50,50v80a50,50,0,0,0,50,50h80a50,50,0,0,0,50-50V270a50,50,0,0,0-50-50Z"/><path class="cls-2" d="M36.25,114.29V61.9A26.19,26.19,0,0,1,62.44,35.71"/><path class="cls-2" d="M297.76,364.88h45.72A22.86,22.86,0,0,0,366.34,342"/></g></g></svg>