<svg xmlns="http://www.w3.org/2000/svg" viewBox="0 0 448.5 448.65"><defs><style>.cls-1{fill:#2b5b89;}.cls-2,.cls-3{fill:none;stroke:#2b5b89;stroke-linecap:round;stroke-linejoin:round;}.cls-2{stroke-width:25px;}.cls-3{stroke-width:15px;}</style></defs><title>nav_Asset 16</title><g id="Layer_2" data-name="Layer 2"><g id="Layer_1-2" data-name="Layer 1"><path class="cls-1" d="M199.79,15A184.79,184.79,0,0,1,330.45,330.45,184.79,184.79,0,1,1,69.12,69.12,183.58,183.58,0,0,1,199.79,15m0-15C89.45,0,0,89.45,0,199.79S89.45,399.57,199.79,399.57s199.79-89.45,199.79-199.79S310.12,0,199.79,0Z"/><line class="cls-2" x1="436" y1="436.15" x2="340.98" y2="341.12"/><path class="cls-3" d="M64.09,145.67A152.41,152.41,0,0,1,178.32,53.9"/><path class="cls-3" d="M329,272.23a158.86,158.86,0,0,1-122.73,76.32"/><path class="cls-3" d="M348.45,222q-1.3,6.37-3.14,12.73-1.52,5.24-3.37,10.29"/></g></g></svg>