<svg xmlns="http://www.w3.org/2000/svg" viewBox="0 0 412 375.35"><defs><style>.cls-1{fill:#2b5b89;}.cls-2{fill:none;stroke:#2b5b89;stroke-linecap:round;stroke-linejoin:round;stroke-width:15px;}</style></defs><title>nav_Asset 17</title><g id="Layer_2" data-name="Layer 2"><g id="Layer_1-2" data-name="Layer 1"><path class="cls-1" d="M347.2,184.67a49.86,49.86,0,0,1,49.8,49.8v54.3a49.47,49.47,0,0,1-19.4,39.44A15,15,0,0,0,371.76,340q0,1.47,0,2.91l-.83-.87a15,15,0,0,0-13.91-4.47,50.28,50.28,0,0,1-9.86,1H147.1a49.86,49.86,0,0,1-49.8-49.8v-54.3a49.86,49.86,0,0,1,49.8-49.8H347.2m0-15H147.1a64.8,64.8,0,0,0-64.8,64.8v54.3a64.8,64.8,0,0,0,64.8,64.8H347.2A65.16,65.16,0,0,0,360,352.3a75.92,75.92,0,0,0,44.17,23.05c-14.27-8.93-17.47-23.67-17.42-35.26A64.67,64.67,0,0,0,412,288.77v-54.3a64.8,64.8,0,0,0-64.8-64.8Z"/><path class="cls-1" d="M264.9,15a49.86,49.86,0,0,1,49.8,49.8v4.3a49.86,49.86,0,0,1-49.8,49.8H64.8a50.28,50.28,0,0,1-9.86-1A15,15,0,0,0,41,122.39l-.83.87q.05-1.44,0-2.91a15,15,0,0,0-5.84-11.81A49.48,49.48,0,0,1,15,69.1V64.8A49.86,49.86,0,0,1,64.8,15H264.9m0-15H64.8A64.8,64.8,0,0,0,0,64.8v4.3a64.67,64.67,0,0,0,25.24,51.32c0,11.59-3.15,26.33-17.42,35.26A75.92,75.92,0,0,0,52,132.63,65.16,65.16,0,0,0,64.8,133.9H264.9a64.8,64.8,0,0,0,64.8-64.8V64.8A64.8,64.8,0,0,0,264.9,0Z"/><path class="cls-2" d="M35.12,58.69S38.45,33.61,70.2,33.61h65.08"/><path class="cls-2" d="M370.47,293.86s-3.33,25.08-35.08,25.08H270.3"/></g></g></svg>