<svg xmlns="http://www.w3.org/2000/svg" viewBox="0 0 408.43 404.95"><defs><style>.cls-1{fill:#454ade;}</style></defs><title>nav_Asset 15</title><g id="Layer_2" data-name="Layer 2"><g id="Layer_1-2" data-name="Layer 1"><path class="cls-1" d="M360.75,328.77A201.59,201.59,0,0,0,405,202.48C405,90.65,314.31,0,202.48,0S0,90.65,0,202.48,90.66,404.95,202.48,404.95a201.57,201.57,0,0,0,119.5-39c44.31,26.95,86.45,27.79,86.45,27.79C379.32,378.34,366.19,353,360.75,328.77ZM338.42,216.54H216.54V338.42a14.06,14.06,0,0,1-14.06,14.06h0a14.06,14.06,0,0,1-14.06-14.06V216.54H66.54a14.06,14.06,0,0,1-14.06-14.06h0a14.06,14.06,0,0,1,14.06-14.06H188.42V66.54a14.06,14.06,0,0,1,14.06-14.06h0a14.06,14.06,0,0,1,14.06,14.06V188.42H338.42a14.06,14.06,0,0,1,14.06,14.06h0A14.06,14.06,0,0,1,338.42,216.54Z"/></g></g></svg>