<svg xmlns="http://www.w3.org/2000/svg" viewBox="0 0 400.01 400"><defs><style>.cls-1{fill:#454ade;}</style></defs><title>nav_Asset 14</title><g id="Layer_2" data-name="Layer 2"><g id="Layer_1-2" data-name="Layer 1"><path class="cls-1" d="M150,0H50A50,50,0,0,0,0,50V150a50,50,0,0,0,50,50H150a50,50,0,0,0,50-50V50A50,50,0,0,0,150,0ZM62.44,45A18.71,18.71,0,0,0,43.75,63.71v52.38a7.5,7.5,0,1,1-15,0V63.71A33.73,33.73,0,0,1,62.44,30a7.5,7.5,0,0,1,0,15Z"/><rect class="cls-1" x="220.01" y="20" width="180" height="180" rx="50" ry="50"/><path class="cls-1" d="M350,220H270a50,50,0,0,0-50,50v80a50,50,0,0,0,50,50h80a50,50,0,0,0,50-50V270A50,50,0,0,0,350,220Zm-6.51,154.19H297.77a7.5,7.5,0,0,1,0-15h45.72a15.38,15.38,0,0,0,15.36-15.36,7.5,7.5,0,0,1,15,0A30.4,30.4,0,0,1,343.49,374.19Z"/><rect class="cls-1" x="20.01" y="220" width="180" height="180" rx="50" ry="50"/></g></g></svg>