<svg xmlns="http://www.w3.org/2000/svg" viewBox="0 0 448.5 448.65"><defs><style>.cls-1{fill:#454ade;}</style></defs><title>nav_Asset 11</title><g id="Layer_2" data-name="Layer 2"><g id="Layer_1-2" data-name="Layer 1"><path class="cls-1" d="M444.84,427.31l-95-95-.27-.26a199,199,0,0,0,50-132.23C399.57,89.45,310.12,0,199.79,0S0,89.45,0,199.79,89.45,399.57,199.79,399.57a199,199,0,0,0,132.09-49.89,3.43,3.43,0,0,0,.26.28l95,95a12.5,12.5,0,1,0,17.68-17.68Zm-245.05-57.6c-93.7,0-169.93-76.23-169.93-169.92S106.09,29.86,199.79,29.86s169.92,76.23,169.92,169.93S293.48,369.71,199.79,369.71Z"/><path class="cls-1" d="M199.79,44.86c-85.43,0-154.93,69.5-154.93,154.93s69.5,154.92,154.93,154.92,154.92-69.5,154.92-154.92S285.21,44.86,199.79,44.86ZM184.93,89.18A116,116,0,0,0,98,159a6,6,0,0,1-11.1-4.59,128,128,0,0,1,96-77.1,6,6,0,1,1,2.07,11.83Zm124.74,172a133.2,133.2,0,0,1-102.91,64l-.51,0a6,6,0,0,1-.49-12A121.15,121.15,0,0,0,299.37,255a6,6,0,0,1,10.3,6.18Zm13.69-31.4c-.84,2.9-1.79,5.8-2.82,8.63a6,6,0,0,1-5.65,3.94,5.87,5.87,0,0,1-2.05-.36,6,6,0,0,1-3.59-7.7c.94-2.58,1.81-5.22,2.58-7.86.92-3.19,1.73-6.46,2.39-9.71A6,6,0,1,1,326,219.1C325.26,222.67,324.38,226.26,323.36,229.76Z"/></g></g></svg>