<svg xmlns="http://www.w3.org/2000/svg" viewBox="0 0 291.9 422.33"><defs><style>.cls-1{fill:#454ade;}</style></defs><title>nav_Asset 13</title><g id="Layer_2" data-name="Layer 2"><g id="Layer_1-2" data-name="Layer 1"><path class="cls-1" d="M252.56,144.33A507.19,507.19,0,0,0,207.4,58a66.64,66.64,0,0,1-14.16,47c-14.45,18.53-34.35,25.6-41.24,27.75a122.92,122.92,0,0,0,9.47-59C158.09,36.49,138.11,10.61,128.82,0c0,0,6.15,51.09-59.08,121.57C58,134.27,0,191.25,0,258.69c0,85.75,68.1,156.5,128.82,163.64,0,0-59.78-50.66-59.78-112.83,0,0-7-52.94,66.59-117.25a115.3,115.3,0,0,0-10.62,56,118.49,118.49,0,0,0,19.82,57.5s42.76-10.55,37-57c0,0,42.77,21.44,42.77,70.75,0,42.5-32,98.35-42.47,101.05C230.82,408,270.8,377.43,286.65,323,303.24,266.11,277.43,205.8,252.56,144.33ZM106,144.85l-2.66,2.83c-16.1,17-65.09,68.8-65.09,129.2a7.5,7.5,0,0,1-15,0c0-66.38,52.08-121.42,69.19-139.51l2.55-2.7a7.5,7.5,0,0,1,11,10.18ZM238.6,269.65a7.65,7.65,0,0,1-3.11.67,7.5,7.5,0,0,1-6.83-4.39c-8.3-18.22-22.6-28.78-26-29.65a7.5,7.5,0,0,1,.36-15H203c7.21.06,15.76,7.27,20.22,11.56a89.87,89.87,0,0,1,19,26.86A7.51,7.51,0,0,1,238.6,269.65Z"/></g></g></svg>